<svg xmlns="http://www.w3.org/2000/svg" version="1.0" width="1706.667" height="433.333" viewBox="0 0 1280 325"><g fill="#fff"><path d="M147.6 16.1c-2.5 10.3-15.6 82.5-15.6 85.4 0 2 .5 4.5 1.1 5.7 2.6 4.8 2.6 4.8 84.9 4.8 52.2 0 77-.3 77-1 0-2.1-5.3-13.7-10.2-22.2-14.9-26.3-39.6-49.1-66.3-61.3-18.2-8.3-35.2-12.4-55.7-13.2l-14.7-.6-.5 2.4z"/><path d="M126 16.6c-3.5.8-6.8 1.8-7.2 2.2C117.4 20.2 80.1 127 78.9 133c-1.6 8.4-.8 21.4 1.9 27.2 3 6.9 10.5 14.3 17.7 17.8 13.8 6.6 9.6 6.3 111.7 6.7l92.6.4.8-5.8c1-7 1-29.5 0-34.6l-.7-3.7h-83.2c-51.8 0-85.7-.4-89.7-1-16.1-2.6-22.5-11-20-26.6.6-3.6 6.4-27 13-52.1 6.6-25 12-45.7 12-45.9 0-.6-1.8-.4-9 1.2z"/><path d="M91.4 28.9c-15.6 7.8-27.6 16.3-39.9 28.6-36.7 36.7-51.1 87.7-39.3 139 13.1 57.1 55.3 97.7 115.1 110.7 8.6 1.9 13.3 2.2 30.2 2.2s21.6-.3 30.2-2.2c40.3-8.8 73-31.9 94.3-66.7 4.3-6.9 11.1-20.9 12.5-25.3l.6-2.2h-89.3c-96.9 0-100.6-.2-116.6-5.5-21.2-7.2-34.3-21.2-37.2-40-2.6-16.4-.4-23.3 28-88.4 13.2-30.4 23.9-55.5 23.7-55.7-.2-.2-5.7 2.3-12.3 5.5zM441.9 69c-15.6 2.8-28.7 8-41.4 16.5-30.8 20.4-48.2 56.7-46.2 95.8 2.2 43.6 31.8 74.9 75.4 79.7 39.7 4.3 79.7-15.6 99.7-49.7.5-.9-5.2-4.2-18.2-10.7l-18.9-9.5-1.5 3.3c-2.3 4.7-11.1 13.9-16.9 17.7-11.8 7.5-26.9 10.3-41.1 7.5-25.6-5-40.2-26.7-37-54.9 2.6-23.2 14.4-41.2 32.7-50.2 9.3-4.6 17.2-6.5 27-6.5 9.4 0 17.8 2 24.8 5.7 6.2 3.4 14.9 12.8 17.3 18.7 1.1 2.5 2.3 4.6 2.9 4.6 1.1 0 40.8-11.2 41.4-11.6.8-.7-4.1-11.1-8.7-18.4-10.1-16.3-26.4-29-45.2-35.2-8.8-2.9-10.7-3.1-25.5-3.4-8.8-.1-18.1.1-20.6.6zM902 72.6c-8 2.5-16.1 4.9-18.1 5.4l-3.6 1-1.2 11.3c-.6 6.1-1.4 12.9-1.7 14.9l-.6 3.8h-12.9c-8.3 0-12.9.4-12.9 1 0 1.4-2.8 28.5-3.4 32.7l-.5 3.3h13c7.1 0 12.9.3 12.9.7 0 .5-1.6 16.1-3.6 34.8-2.5 23.7-3.4 36.4-3.1 42 1.3 19 9.6 29 27.7 33.6 5.4 1.4 37.2 2.1 38.4.8.3-.3 1.2-6.8 2.1-14.5.8-7.6 1.7-15.3 2-16.9l.5-3h-11.3c-12-.1-16-1.3-19.1-5.7-2.2-3.2-2-9.2 1.4-41.3 1.6-15.4 3-28.6 3-29.3 0-.9 4.1-1.2 17-1.2 9.4 0 17-.4 17-.9 0-1.8 3-30.7 3.5-33.4l.5-2.7h-34.1l.6-4.3c1.1-7.8 3.5-31.2 3.5-34 0-1.5-.5-2.7-1.2-2.6-.7.1-7.8 2.1-15.8 4.5zm349.6 1c-9.8 2.9-18 5.5-18.2 5.7-.2.2-4.4 39.2-9.4 86.8-4.9 47.5-9.1 87.6-9.3 89.2l-.4 2.7 19.1-.2 19.1-.3 9.7-92.5c5.3-50.9 9.7-93.5 9.8-94.8 0-1.2-.6-2.2-1.2-2.1-.7 0-9.4 2.5-19.2 5.5zM606 106.5c-30.7 6.3-55.2 30.7-63.7 63.4-3.3 12.9-3.5 30.8-.4 42.4 9.4 35.4 41.2 55.3 76.9 48.2 10-2 22.7-8.2 29.5-14.5 3-2.8 5.7-5 5.9-5 .2 0 .1 2.6-.3 5.7-.4 3.2-.8 7-.8 8.5l-.1 2.8h19c16.3 0 19-.2 19-1.5 0-.8 3.4-33.3 7.5-72.2 4.1-38.8 7.5-71.7 7.5-73V109h-31.6l-3.4 7.7c-1.8 4.3-3.6 8.2-4 8.6-.4.5-3.1-1.7-6-4.8-12.1-12.7-34-18.3-55-14zm24 35.6c8.7 1.4 14 3.9 19.8 9.3 15.8 14.8 14.4 43.5-2.9 60.9-7 7-15.6 11.3-25.5 12.6-24 3.4-42-10.5-43.2-33.3-.8-15 3.8-27.4 13.7-37.2 8.1-8 16.5-11.7 30.6-13.3.6 0 3.9.4 7.5 1zm139.5-35.5c-11.5 2-24.6 8.7-32.4 16.5-10.1 10-14.8 22.5-13.9 36.8 1.2 18.7 11.2 27.7 42.3 37.9 17.2 5.6 22.5 8.1 25.4 11.8 4.8 6.1 1 14-7.9 16.4-6.1 1.6-19.6.9-24.1-1.3-4.7-2.3-10.5-8.1-13-12.9l-1.9-3.7-18.2 6.1c-10.1 3.3-18.7 6.5-19.3 7-2 1.8 6.4 15.8 13.9 23.3 12.7 12.6 24.9 17 47.6 16.9 17.1 0 24.6-1.6 36.5-7.4 13.7-6.7 22.1-15.8 26.5-29.1 1.8-5.3 2.1-8 1.8-15.9-.5-12-3-18-10.2-24.9-7.8-7.3-15.8-11-37.1-17.1-21.6-6.3-27.1-11.5-21.5-20.7 4-6.6 15.4-9.2 23.3-5.4 4.6 2.2 9.1 7.7 10.3 12.5.3 1.5.9 2.8 1.3 3 .3.2 8.7-2 18.6-4.8 20.9-6.1 20-4.9 13.8-17.6-4.5-9.3-14.2-19.3-22.6-23.3-11.4-5.5-23.9-6.8-39.2-4.1zm349.1 0c-35.7 7.1-62 33.1-69.1 68.3-2.7 13-1.8 30 2.2 41.2 10.4 29.9 38.5 47.7 71.8 45.6 37.3-2.5 67.2-26.3 78.1-62.2 2.5-8.1 2.8-10.5 2.8-24 0-13.6-.2-15.7-2.7-23-11.5-34.4-45.8-53.4-83.1-45.9zm27.1 38.6c19.6 7.3 26.7 32.6 15.6 55.4-10.1 20.7-37.2 30.1-57.2 19.9-26.7-13.5-22.9-58.7 6.2-73 4-1.9 9.2-4 11.7-4.5 6.4-1.3 17-.3 23.7 2.2zm-100.2-38.6c-1.1.2-4.5.9-7.5 1.5-7.9 1.5-20.8 8-26.9 13.5-2.8 2.5-5.3 4.5-5.5 4.3-.1-.2-1.1-4.1-2.1-8.7l-1.8-8.2h-32.3l-7.7 73.7c-4.3 40.6-7.8 74.1-7.7 74.5 0 .5 8.6.8 19 .8 14.8 0 19-.3 19-1.3 0-4.7 8.2-77.6 9.1-81 4.7-17.6 21.4-29.7 41-29.7 4.8 0 6.9-.4 6.9-1.3 0-.6.9-9.5 2-19.7s2-18.6 2-18.8c0-.3-5.1 0-7.5.4z"/></g></svg>