<svg version="1.0" xmlns="http://www.w3.org/2000/svg" width="457.333" height="190.667" viewBox="0 0 343 143"><g fill="#FFF"><path d="M123.8 40.8c-1 .4 8.5.7 21 .7h22.7l11.5 4.1c15.9 5.7 16.2 5.8 10 2.8-15.1-7.1-18.7-7.8-42-8.1-11.8-.1-22.3.1-23.2.5zm-8.3 2.2c-2.5 1.1.1 1.1 3.5 0 2-.6 2.1-.8.5-.8-1.1 0-2.9.3-4 .8zm-9 2c-2.5 1.1.1 1.1 3.5 0 2-.6 2.1-.8.5-.8-1.1 0-2.9.3-4 .8zM99 47c-1.3.9-1.3 1 0 .9.8 0 2.4-.4 3.5-.9l2-.9h-2c-1.1 0-2.7.4-3.5.9zm-6.2 1.5c-.3.3-4.5 1.2-9.4 1.9-6.5 1-7.7 1.4-4.4 1.4 4.6 0 20.2-3.5 16.4-3.7-1.1 0-2.3.1-2.6.4zm-63.3 1.6c5.1 1 9.2 1 5-.1-1.6-.4-4.3-.8-6-.8-2.5 0-2.4.2 1 .9zm127.5 0c6.5.7 14.4 2.7 21.5 5.4 1.4.6 1.7.5 1-.2-.5-.6-4.5-2.3-8.7-3.7-5.6-1.9-9.5-2.6-14.5-2.5l-6.8.2 7.5.8zM40.3 52.3c1.9.8 1 1.3-5.8 3.9-9.1 3.3-12 5.6-14.5 11.3-2 4.3-7.1 26-6.9 29.1.1 1.9 1.1-1.9 4.3-16.6.9-4.1 2.8-9.8 4.1-12.7 2.6-5.7 3.7-6.4 17.6-11.8 5.8-2.2 8.2-2.5 21-2.6 17.7-.2 14.7-.7-6.3-1.1-9.2-.2-14.8 0-13.5.5zm157.1.5c.3.5 4.8 2.8 10.1 5.1 10 4.4 18.3 6.7 35 9.6 20.4 3.6 31.4 9.3 46.1 23.9 10.5 10.5 13.8 15.5 12.9 19.5-.8 3.7-5.5 9.7-10.1 13-3.1 2.2-4.5 2.5-11.9 2.4-4.7 0-8.2.4-7.9.8.7 1.2 10.8 1.1 15.8-.1 7.9-1.8 16.9-13.7 15.3-20.2-.9-3.4-11.9-16.1-19.2-22.1-14-11.5-22.8-15.2-45.5-19.2-14.8-2.5-21.6-4.7-35.3-10.9-3.2-1.4-5.6-2.3-5.3-1.8zM181 56.4c0 .2.7.7 1.6 1 .8.3 1.2.2.9-.4-.6-1-2.5-1.4-2.5-.6zm-49.3 6.2c-.2 1.4-.5 7.6-.6 13.8-.2 13.1-1.3 15.6-6.6 15.6H121l.7-11.9c.6-12.2.1-16.9-1.7-14.1-.6.8-1 7.3-1 14.5 0 7.1-.5 19.1-1 26.5-.5 7.4-.7 14.5-.4 15.7 1.3 5 2.2 1.8 2.6-9.2.2-6.3.9-12 1.5-12.6.5-.5 2.6-1.2 4.6-1.6l3.7-.6v13.4c0 10.6.3 13.1 1.3 12.1.8-.9 1.3-5.8 1.4-16 .1-8.1.5-21.9.9-30.8.5-10.8.4-16.3-.3-16.7-.6-.4-1.3.5-1.6 1.9zm-37.1 4.6c-.3 1.8-.8 10.8-1.1 20.1-.7 19.5.5 30.5 4 34.5 2.9 3.4 5.1 2.4 7.7-3.5 1.8-4.1 2.2-7.9 3-28.1.6-12.8.7-23.6.4-23.9-1.6-1.6-2.1 2.5-2.8 21.8-.6 14.5-1.2 22-2.2 24.4-1.7 4.1-2.6 4.3-5.2 1.4-1.8-2-1.9-3.8-1.7-26 .1-14.1-.1-23.9-.7-23.9-.5 0-1.1 1.5-1.4 3.2zm6.5 50.8c1 0 1.9-.5 1.9-1.2 0-.6.3-.8.6-.5.8.8-2.3 5.7-3.6 5.7-1.1 0-4-5.2-4-7.2 0-.7.7-.2 1.6 1 .8 1.2 2.4 2.2 3.5 2.2zM83 66.5c-1.4.8-3.2 1.4-4.1 1.5-1.4 0-1.7 1.9-2.3 11.7-1.4 28-1.7 43.9-.7 45.3.5.8 1.2 1.2 1.5 1 .2-.3.6-5.2.7-10.8l.3-10.4 3.5-2.6c4.7-3.5 5.1-4.1 5.1-8 0-3.7-1.8-4.2-4.5-1.2-3.2 3.6-3.8 2.4-3.3-7.1.5-9.8 1.6-11.9 6.4-11.9 2.4 0 3.9-3.7 2.9-7.1-.7-2.2-2.1-2.3-5.5-.4zm3.7 2.3c.1 1.3-1.1 2.3-4.3 3.5-5.6 2-6 .2-.6-3 4.6-2.7 4.7-2.7 4.9-.5zM84 96.1c-2 1.5-2.1 1.8-.5 1.3 2.3-.8 2.2-.7-2.7 2.9l-3.8 2.8v-2.7c0-1.5.3-2.4.6-2.1.4.3 2.3-.7 4.2-2.3 2-1.6 3.8-2.7 4.1-2.4.3.3-.5 1.4-1.9 2.5zm81.1-28.5c-2.4 2-3.1 3.4-3.1 6.1 0 2.8.3 3.4 1.6 2.9 1.2-.5 1.5-.1 1 2.2-.9 4.8-1.8 41.8-1.1 45.1 1.3 6.2 2.5 2.9 2.5-7.4v-10.4l3.9-6.1c5.4-8.3 7.5-15 7.6-23.6 0-5.7-.4-7.6-1.9-9.3-2.6-2.8-6.8-2.7-10.5.5zM174 73c1.4.7 1.7 1.8 1.3 4.7-.6 4.6-4.5 13.4-7.4 17.1l-2.1 2.7.7-12c.4-7.1 1.2-12.3 1.9-12.7 1.5-1 3.4-1 5.6.2zm18.8-6.4c-.8.9-3.4 1.6-5.8 1.7-3.7.2-4.5.6-5 2.7-1 3.6-2.3 51.7-1.5 53 .5.8 1.2.7 2.3-.3 1-.7 3.3-2 5.2-2.7 1.9-.7 4.3-2 5.3-2.8 2.2-1.9 2.4-8.2.2-8.2-.8 0-1.5.4-1.5.9 0 1-5.3 3.1-7.7 3.1-1.1 0-1.3-1.6-1.1-7.7l.3-7.7 4-.8c4.5-1 5.5-2.1 5.5-6.6 0-3.6-.4-3.8-4-1.7-4.5 2.6-5 2-5-5.4 0-7.2.6-8.1 5.1-8.1 1.1 0 3.1-.7 4.4-1.6 2-1.3 2.5-2.5 2.5-5.5 0-4.2-.7-4.8-3.2-2.3zm12.9 2c-1.6.9-3.5 1.3-4.2 1-2.1-.7-2.3 1.1-3 21.4-.3 10.2-.8 20.9-1.1 23.8-.2 2.9-.2 6.3.2 7.6l.6 2.4 3.4-2.3c1.9-1.3 4.8-2.6 6.4-3 2.7-.6 3-1 3-4.6 0-4.3-.9-4.7-5-2.4-5 2.8-6 2.1-6-4.4 0-6.3.8-7.5 5.3-8.6 2.4-.6 2.7-1.2 2.7-4.6 0-3.2-.4-3.9-1.9-3.9-1.1 0-2.3.4-2.6 1-1.6 2.6-2.5.4-2.5-5.9 0-7.9.8-9 7-9.8l4.1-.6-.3-4.1c-.3-4.7-1.8-5.4-6.1-3zm-54.5.1c-2.9 1.2-5.6 8.7-5.6 15.8 0 7.8 1.5 11.6 7 17.8 4.3 4.7 4.7 10 .9 14.1-2 2.2-2.8 2.5-4.4 1.6-3.3-1.7-4.1-1.2-4.1 3 0 3.4.4 4.1 2.4 4.6 4.1 1 6 .1 8.3-4.2 4.7-8.5 3.9-21-1.8-26.6-6.5-6.6-7.5-10.7-3.9-16.6 2.8-4.5 6.4-4.2 6.8.6.5 4.7 2.2 2.9 2.2-2.4 0-7.3-2.6-9.8-7.8-7.7z"/><path d="M216.7 69.9c-.4 1.6-.9 20.1-1.1 40.3-.1 5.8.3 11 .7 11.5.5.4 1.9-.5 3.3-2.2l2.3-2.9 3.8 4.3c4.1 4.8 12.2 9.1 16.8 9 2.5-.1 2.4-.2-1.2-.9-2.3-.5-5.5-1.6-7.1-2.4-3.9-2-10.2-8.6-10.2-10.7 0-.8 1.3-4 2.9-7 3.8-7 5-11.9 5.2-20.4.2-7.8-1.2-14.2-3.9-17.4-2.2-2.8-10.9-3.7-11.5-1.2zm11.4 9.8c1.7 3.2 1.7 12.3.1 17.9-1.2 4.1-7.5 12.4-9.4 12.4-1 0-.3-20.3 1.1-32.2.1-.9 3.2-1.5 5.2-1 .9.2 2.3 1.5 3 2.9zM40.4 84.2c-15.6 10.4-13.6 35.3 3.3 42.3 5.3 2.3 5.4 1.7.1-1-16.9-8.8-16.8-33.6.1-42.5 2-1 3.1-1.9 2.5-2-.7 0-3.4 1.5-6 3.2zM237.3 82c-3.4 1.4-2.8 2.1.7.9 1.7-.6 3-1.3 3-1.5 0-.6-1.2-.4-3.7.6zM13.1 102.5c0 1.1.4 2.7.9 3.5.9 1.3 1 1.3.9 0 0-.8-.4-2.4-.9-3.5l-.9-2v2zm73.9 14c0 5.6 1.3 7.3 2.4 3.2 1.1-4.3.7-8.7-.9-8.7-1.2 0-1.5 1.3-1.5 5.5zm24.7-4.8c-1 1-.8 10.3.2 10.3 1.3 0 2.1-2.7 2.1-7.1 0-3.7-.8-4.8-2.3-3.2zm1 4.5c-.3.8-.6.5-.6-.6-.1-1.1.2-1.7.5-1.3.3.3.4 1.2.1 1.9z"/></g></svg>