<svg xmlns="http://www.w3.org/2000/svg" version="1.0" width="541.333" height="165.333" viewBox="0 0 406 124"><path d="M0 59.9v60l12.5.3 12.5.3V77.6c0-23.6.2-42.7.5-42.4.3.3 5.8 19.5 12.3 42.7 6.5 23.2 12.1 42.2 12.5 42.2.4-.1 5.6-.1 11.6-.1h10.8l11.8-41.8C91 55.3 96.7 36.1 97.1 35.6c.5-.6.9 17.9.9 41.7V120h24V0l-18.7.2-18.8.3-10.7 35c-5.8 19.2-10.9 35.9-11.2 37-.3 1-.8 1.7-1.1 1.4-.2-.3-4.1-12.7-8.6-27.5-4.4-14.8-9.4-31.3-11-36.7l-3-9.7H0v59.9zm237 .3v60.3l12.5-.3 12.5-.3v-7.3l2.8 2.6c5.6 5.2 11.6 7.1 22.7 7 39.8-.5 57.9-52.5 27.9-80.2-7.3-6.7-16.2-10.3-26.7-10.8-10-.5-15.6.7-22.2 4.9L262 39V0h-25v60.2zm54.8-3.6c8 3.3 13.3 11.2 13.3 19.8 0 6.3-1.1 9.4-5.2 14-4.5 5.2-9.7 7.6-16.1 7.6-18.9-.1-28.6-21.2-16.4-35.6 5.6-6.7 16.2-9.3 24.4-5.8zM342 12v12h24V0h-24v12zm39 48.2v60.3l12.5-.3 12.5-.3V0h-25v60.2zM167.3 31.5c-23.2 6.3-38.3 29.1-34.5 51.9 4.7 27.5 31.1 45 57.7 38.1 23.4-6.1 38.4-28.6 34.6-51.9-4.4-27.2-31.6-45.1-57.8-38.1zm21.4 26c15.7 7.9 15.9 29.4.4 37.9-4.6 2.4-6.1 2.8-11.6 2.4-21.7-1.4-27.9-29.9-8.6-40 6.9-3.6 12.9-3.7 19.8-.3zM342 76.7v43.8l12-.3 12-.3V33h-24v43.7z" fill="#fff"/></svg>