<svg xmlns="http://www.w3.org/2000/svg" version="1.0" width="1154.667" height="866.667" viewBox="0 0 866 650"><g fill="#fff"><path d="M62 324.5V425h742V224H62v100.5zM366.3 256c15.5 1.5 27.4 5.7 32.8 11.7 4.9 5.3 28.8 36.1 30.6 39.5 1.5 2.8 1.8 5.6 1.7 17.3 0 13.3-.2 14.5-3.2 22.5-7.8 20.6-24.1 36.2-45.7 43.7-7.4 2.5-9.2 2.7-24 2.8-18.9 0-25.1-1.3-39.4-8.3-7.7-3.7-11-6.1-18.1-13.1-7.3-7.2-9.4-10-12.7-17.1-5-10.5-6.6-17.8-6.5-29.6 0-11.3 1.6-18.8 5.7-27.9 9.9-21.5 29.3-36.3 54-41 8.6-1.6 12.4-1.7 24.8-.5zM187 258.5c0 1.6 7.2 49.3 7.6 50.5.3.8 5.5-10.3 11.6-24.8l11.1-26.2H270v134h-47.3l.7-17.8c.3-9.7.9-22.4 1.2-28.2.6-12.6 1.8-14.4-13.5 20.5l-11 25-15.2.3c-8.4.1-15.6-.1-16.1-.6-.5-.5-1.3-3.8-1.8-7.3s-1.6-10.9-2.5-16.4c-.9-5.5-2.3-15.1-3.2-21.4-2-13.7-1.3-15-10.3 20.1l-6.3 24.7-23.4.3c-12.9.2-23.9 0-24.5-.3-.5-.3 2.7-12.8 7.7-29.5 4.8-15.9 9.9-33.2 11.4-38.4 1.6-5.2 6.5-22 11.1-37.3l8.3-27.7h25.8c14.3 0 25.9.2 25.9.5zm351 1.7c0 1.3-.9 10.6-2 20.8-1.1 10.2-2 18.9-2 19.3 0 .5-4.7.5-10.4.1-12.4-.8-10.6-3.8-13.6 22.6-1.2 10.2-3.4 29.3-5 42.6-1.7 13.2-3 24.3-3 24.7 0 .4-11.7.7-26 .7h-25.9l.4-2.8c.3-1.5 2.8-20.7 5.5-42.7 2.8-22 5.3-41.3 5.6-42.9l.6-2.9-9.5.8c-9.2.7-9.6.6-11.6-1.7-3.3-3.9-31.1-40-31.1-40.4 0-.2 28.8-.4 64-.4h64v2.2zm61-.4c0 .9-1.5 15-3.4 31.2-6.8 57.7-6.7 55-2.1 59.6 3.1 3.1 10.5 3.3 15.1.5 5.5-3.4 5.3-2.4 15.1-73.4l2.7-19.7h24.8c13.6 0 24.8.3 24.8.7 0 .5-.5 4.2-1 8.3-.6 4.1-2.1 17.2-3.5 29s-2.9 25.3-3.5 30c-.5 4.7-1.4 12.2-1.9 16.7-3.4 28.9-18.4 45.1-47.5 50.9-6.2 1.3-11.4 1.6-22.2 1.1-12.1-.4-15.2-.9-22.6-3.4-16.5-5.7-29.6-17.3-33.2-29.3-2.8-9.4-2.8-14.9-.2-36.5 1.4-11.6 3.7-30.9 5.1-43 1.5-12.1 2.8-22.6 3-23.3.3-.9 6.3-1.2 25.5-1.2 23.2 0 25 .1 25 1.8zm141 1c0 1.6-.7 8-1.5 14.3-.8 6.3-1.9 15-2.5 19.4-1 8.9-5.7 46.2-6.4 51.2l-.5 3.3h20c10.9 0 19.9.3 19.9.7 0 .4-2.6 9.9-5.7 21l-5.7 20.3h-86.2l2.2-17.3c1.3-9.4 5.2-39.1 8.8-65.9 3.7-26.7 6.6-48.9 6.6-49.2 0-.3 11.5-.6 25.5-.6H740v2.8z"/><path d="M347.3 302.5c-8.9 4.5-15.3 15.1-15.3 25.3 0 9 7 19.2 15.6 22.8 10.1 4.2 23.7-1.2 30.5-12.2 1.8-3 2.4-5.6 2.7-12.3.4-7.9.2-9-2.5-14.1-4.2-7.9-9.4-11.2-18.7-11.7-6.2-.4-7.8-.1-12.3 2.2z"/></g></svg>