<svg xmlns="http://www.w3.org/2000/svg" version="1.0" width="362.667" height="246.667" viewBox="0 0 272 185"><path d="M1.2 1.2C1.4 1.7 21.1 30.8 45 66l43.5 64 42.9-.3 42.9-.2 31.5-46c17.3-25.3 37-54.2 43.9-64.3L262.1 1h-43.8l-43.8.1-20.9 31.5c-11.6 17.3-21.4 31.7-21.8 32-.4.3-10.3-13.9-22-31.6L88.5.9 44.7.7c-24-.1-43.6.1-43.5.5zm185.6 123.5c.6.2 1.2 1.6 1.2 2.9 0 1.3.5 2.4 1 2.4.6 0 1-1.1 1-2.5s.5-2.5 1-2.5c.6 0 1 1.1 1 2.5 0 2.9 1.6 3.4 2.3.7.4-1.6.5-1.6.6 0 0 1 .5 1.8 1 1.8s1.2-.8 1.4-1.8c.4-1.6.5-1.6.6 0 .2 3.1 2.1 1.9 2.1-1.2 0-3.1-2.3-4.2-3.4-1.8-.5 1-.7 1-1.2 0-.3-.7-2.4-1.2-5.2-1.1-2.6 0-4.1.3-3.4.6zM79 164.5V185h10v-41H79v20.5zm82 0V185h11v-41h-11v20.5zm15-17.5c0 3 .1 3 5.5 3s5.5 0 5.5-3-.1-3-5.5-3-5.5 0-5.5 3zM5 145.9c0 .5.9 2.8 1.9 5.2 1 2.4 4.7 11 8.1 19.2l6.2 14.7h11.4l7.8-18.8c4.3-10.3 8.1-19.3 8.3-20 .4-.9-1.1-1.2-5.4-1.2h-6l-4.8 12.5c-2.6 6.9-5 12.5-5.4 12.5-.3 0-2.8-5.6-5.4-12.5L16.9 145h-6c-3.2 0-5.9.4-5.9.9zM48.1 156l-1 3h8.5c8.3 0 8.4 0 8.4 2.5s-.1 2.5-7.8 2.5c-11 0-12.2 1-12.2 10.4 0 10.1.1 10.1 16.9 10.1h13.6l.3-11c.2-6.1-.2-12.6-.8-14.7-1.3-4.7-4.5-5.8-16.1-5.8h-8.7l-1.1 3zm15.7 17.7l.3 4.3H54v-9.1l4.8.3 4.7.3.3 4.2zm32.6-5l5.3 15.8h13.6l5.3-15.8 5.2-15.7h-10.7l-1.5 5.2c-.8 2.9-2.1 7.4-2.8 10-.6 2.7-1.5 4.8-1.8 4.8-.3 0-1.8-4.5-3.4-10l-2.9-10H91.2l5.2 15.7zm33.7-14.5c-3.4 1.8-4.4 6.4-3.9 17.6.5 11.9 1 12.4 12.2 13 4.7.2 10.1.1 12-.2 6.1-1.2 6.6-2.4 6.6-15.5 0-15.8.2-15.5-13.7-15.9-7.3-.2-11.6.1-13.2 1zm15.9 14.3v9.5h-9v-17.9l4.3-.4c2.3-.2 4.3-.4 4.5-.5.1-.1.2 4.1.2 9.3zm30 .5v16h11v-32h-11v16zm15-.1V185h10v-25h9v25h11v-13.4c0-18.4.4-18-16.9-18.4l-13.1-.4v16.1zm39-15.2c-4.6 1.8-5 3.1-5 15.3 0 15.4 0 15.4 15.5 15.8 11.1.4 11.2.4 11.8-1.9.4-1.3.7-2.7.7-3.2 0-.4-3.8-.7-8.5-.7-8.3 0-8.5-.1-8.5-2.4 0-2.2.4-2.4 8.1-2.8 9.9-.6 10.9-1.5 10.9-10.3 0-9.4-.8-10-13.2-10.2-5.7-.1-11 0-11.8.4zm15 10.4v3.9h-9v-8.5l4.5.3 4.5.4v3.9zm13.8 15.6c.6.2 1.2 1.6 1.2 2.9 0 1.3.5 2.4 1 2.4.6 0 1-1.1 1-2.4 0-1.3.6-2.7 1.3-2.9.6-.3-.4-.5-2.3-.5s-2.9.2-2.2.5zm6.3 2.5c.1 3.1.2 3.1.8.8l.7-2.5.8 2.5c.4 1.4 1 2 1.2 1.3.6-1.4-1.3-5.3-2.6-5.3-.6 0-1 1.5-.9 3.2zm3.9-1.6c0 .9.5 1.2 1.2.8.8-.5.9-.2.5.9-.3.9-.2 1.9.3 2.2.6.4 1-.7 1-2.4 0-2.1-.5-3.1-1.5-3.1-.8 0-1.5.7-1.5 1.6z" fill="#fff"/></svg>