<svg xmlns="http://www.w3.org/2000/svg" version="1.0" width="400" height="100" viewBox="0 0 300 75"><g fill="#fff"><path d="M15 .5c0 .3 2.3 5 5 10.5 2.8 5.5 5 10.2 5 10.4 0 .3-5 4.6-11.1 9.5L2.8 40h16l5.4-4.5c5.7-4.8 5.5-4.8 9 1.4l1.7 3.1H45c5.5 0 10-.2 10-.5s-2.3-5-5-10.5-5-10.1-5-10.3c0-.2 4.9-4.4 11-9.3L67 .5 59.4.2l-7.6-.3-5.6 4.6c-6.1 5.1-5.8 5.1-9.4-1.4L35.1 0H25c-5.5 0-10 .2-10 .5zm57.1 2.2c-3.9 3.7-13.6 32.4-12 35.5.9 1.7 2.2 1.8 18.2 1.6 17-.3 17.2-.3 17.5-2.6.3-2.1.1-2.2-8.2-2.2-9.6 0-9.5.1-7-7.3l1.6-4.7H90c6.2 0 7.9-.3 8.4-1.6 1.2-3.1.5-3.4-6.9-3.4-4.1 0-7.5-.2-7.5-.4 0-.1.5-1.8 1.1-3.7C87.2 7.6 88.4 7 97.7 7c8 0 8.4-.1 9.3-2.6.6-1.4 1-3 1-3.5S101.1 0 91.5 0H75l-2.9 2.7zM107.8 20l-6.6 20h18.6l5.4-16.3 5.5-16.2 3.3-.3c1.8-.2 3.6 0 4.1.5.5.5-1.2 7.1-3.8 15-5.8 17.3-5.7 17.5 5.5 17.1l7.6-.3 6-18.3c5.9-17.9 6-18.4 4.2-19.8C156 .3 151.3 0 135 0h-20.5l-6.7 20zM166.7.7c-.2.5-3 8.6-6.1 18-3.6 10.6-5.5 18-5.1 19.3.6 1.9 1.4 2 22.3 2h21.7l6.7-20 6.6-20h-18.6l-5.9 17.2-5.8 17.3-3.7.3c-3.1.3-3.8 0-3.8-1.5 0-1 2.3-8.6 5-16.8 2.8-8.2 5-15.3 5-15.7 0-1-17.7-1.1-18.3-.1zm46.2 18c-3.4 10.4-6.4 19.4-6.7 20-.3 1 1.8 1.3 8.4 1.3h8.9l5.5-16.3c5.2-15.4 5.6-16.2 8.3-16.5 1.6-.2 2.9.2 3.2 1.1.3.7-1.7 7.8-4.5 15.7-2.7 7.9-5 14.7-5 15.2 0 .4 4 .8 8.8.8h8.8l5.4-16.5c5.3-16 5.5-16.5 8.2-16.5 1.5 0 2.9.4 3.2.8.3.5-1.6 7.2-4.1 15-6 18.1-6.5 17.4 11.1 17 11.5-.3 13.1-.5 13.4-2.1.3-1.4-.4-1.7-4.6-1.7-2.7 0-5.1-.3-5.4-.6-.3-.3 1.7-7.5 4.5-16 4.1-12.1 4.9-15.8 4.1-17.2-1-1.5-4-1.7-33.2-2l-32-.2-6.3 18.7zm80.3 15.5c-1.7 1.7-1.5 3.3.5 4.9 1.5 1.3 1.5 1.2.3-.8-1.1-1.8-1.2-2.4-.1-3.7 1.6-1.9 1-2.1-.7-.4z"/><path d="M297.2 34.1c.2.8-.3 1.3-.9 1.1-1.4-.2-1.7 1-.6 2.1.3.4 1.2-.1 1.9-1.1 1.1-1.4 1.3-1.5 1.4-.2 0 .9-.6 2.2-1.2 3-1.1 1.2-1 1.2.5.1 2.1-1.7 2.2-3.5.1-5.1-1.2-1.1-1.5-1.1-1.2.1zM39 65.9c0 .5 1 1.1 2.3 1.3 1.8.2 2.3 1 2.5 4.1.4 4.9 2.6 4.4 3-.6.3-2.9.7-3.7 2.3-3.7 1 0 1.9-.5 1.9-1 0-.6-2.7-1-6-1s-6 .4-6 .9zM54 70v5h5c2.8 0 5-.5 5-1 0-.6-1.6-1-3.5-1s-3.5-.5-3.5-1c0-.6 1.6-1 3.5-1s3.5-.5 3.5-1c0-.6-1.6-1-3.5-1s-3.5-.5-3.5-1c0-.6 1.6-1 3.5-1s3.5-.5 3.5-1c0-.6-2.2-1-5-1h-5v5zm13.6-3.4c-1 2.5-.7 5.9.6 7.2C70.5 76.1 79 75 79 72.4c0-1-1.1-1.2-4.5-.7-4.1.5-4.5.4-4.5-1.6 0-2.8 2.5-3.7 5.6-2.1 2.7 1.5 3.9.9 3.1-1.5-.9-2.2-10.2-2.1-11.1.1zM82 70c0 5 1.7 6.9 2.7 3 .4-1.4 1.4-2 3.4-2 2.2 0 2.9.5 2.9 2 0 1.1.7 2 1.5 2 1.1 0 1.5-1.2 1.5-5s-.4-5-1.5-5c-.8 0-1.5.9-1.5 2 0 1.5-.7 2-2.9 2-2 0-3-.6-3.4-2-1-3.9-2.7-2-2.7 3zm15 .1c0 5.8 2.3 6.6 2.8.9l.3-3.3 2.5 3.7c1.7 2.5 3.2 3.6 4.9 3.6 2.3 0 2.5-.4 2.5-5 0-3.7-.4-5-1.4-5-1 0-1.6 1.3-1.8 3.7l-.3 3.7-2.5-3.7c-1.6-2.4-3.3-3.7-4.7-3.7-2.1 0-2.3.5-2.3 5.1zm16.4-3.7c-.3.8-.4 2.9-.2 4.8.3 3.2.4 3.3 5.6 3.6 4.8.3 5.3.1 6.2-2.2.6-1.7.6-3.5 0-5.1-.8-2.2-1.5-2.5-6-2.5-3.4 0-5.2.5-5.6 1.4zm9.4 3.3c.3 2-.1 2.3-3.2 2.3-2.8 0-3.6-.4-3.6-1.8 0-2.6 1-3.3 4-3 1.7.2 2.6 1 2.8 2.5zm13.9-4c-1.4 1.4-.7 8.1.9 8.7 2.6 1 7.9.7 9.2-.6 2.2-2.2 1.3-2.8-3.3-2.1-4.1.5-4.5.4-4.5-1.6 0-2.8 2.5-3.7 5.6-2.1 2.7 1.5 3.9.9 3.1-1.5-.5-1.1-2-1.5-5.5-1.5-2.7 0-5.2.3-5.5.7zM151 70c0 3.8.4 5 1.5 5 .8 0 1.5-.9 1.5-2 0-1.6.7-2 3-2s3 .4 3 2c0 1.1.7 2 1.5 2 1.1 0 1.5-1.2 1.5-5s-.4-5-1.5-5c-.8 0-1.5.9-1.5 2 0 1.6-.7 2-3 2s-3-.4-3-2c0-1.1-.7-2-1.5-2-1.1 0-1.5 1.2-1.5 5zm15 0v5h4.9c2.8 0 5.3-.5 5.6-1 .4-.6-1-1-3.4-1-2.3 0-4.1-.5-4.1-1 0-.6 1.6-1 3.5-1s3.5-.5 3.5-1c0-.6-1.6-1-3.5-1s-3.5-.5-3.5-1c0-.6 1.8-1 4.1-1 2.4 0 3.8-.4 3.4-1-.3-.6-2.8-1-5.6-1H166v5zm13.9-4.5c0 .3-.1 2.4-.1 4.7-.1 5.3 2 6.3 2.4 1.1l.3-3.8 2 3.8c1 2 2.4 3.7 3 3.7.6 0 2-1.7 3-3.8l2-3.7.3 3.7c.5 5.6 2.2 4.6 2.2-1.2 0-4.6-.2-5-2.3-5-1.6 0-2.8 1-3.8 3.2l-1.5 3.1-1.3-3.1c-1-2.3-2-3.2-3.7-3.2-1.3 0-2.4.2-2.5.5zM199 70c0 2.7.5 5 1 5 .6 0 1-2.3 1-5 0-2.8-.4-5-1-5-.5 0-1 2.2-1 5zm6.7-4.4c-.4.4-.7 2.4-.7 4.5 0 3.2.4 4 2.4 4.5 3.8.9 8.1.1 8.4-1.8.3-1.4-.3-1.5-3.8-1.1-4 .6-4.2.5-3.8-1.8.3-2.5 2.4-3 6.2-1.4 1.4.6 1.7.4 1.4-1.1-.2-1.5-1.3-2-4.8-2.2-2.5-.2-4.9 0-5.3.4zm15.1 3.9c-2.3 4.8-1.9 6.6 1.2 4.7 2.4-1.5 6.6-1.6 7.5-.2.3.6 1.3 1 2.1 1 1.1 0 .9-1.1-1.1-5-2-4-3-5-5-5s-3 1-4.7 4.5zm6.2.1c0 .8-.7 1.4-1.5 1.4-1.7 0-1.8-.2-.9-2.4.7-1.8 2.4-1.2 2.4 1zm8 .5v5l4.8-.3c5.3-.3 6.4-2.1 1.5-2.6-3-.3-3.3-.6-3.3-3.8 0-2.4-.5-3.4-1.5-3.4-1.1 0-1.5 1.2-1.5 5.1zm12.4-3.7c-1.1 2.9.4 4.6 4.1 4.6 1.9 0 3.5.5 3.5 1.1 0 .8-1.3.9-4.1.5-3.1-.5-4-.3-3.7.6.3.8 2.3 1.3 5.4 1.3 4.6 0 4.9-.2 4.9-2.5 0-2.2-.5-2.5-3.7-2.8-2.1-.2-3.8-.8-3.8-1.4 0-.7 1.4-.8 4.1-.4 3.1.5 4 .3 3.7-.6-.7-2-9.7-2.3-10.4-.4z"/></g></svg>