<svg xmlns="http://www.w3.org/2000/svg" version="1.0" width="1280.000000pt" height="325.000000pt" viewBox="0 0 1280.000000 325.000000" preserveAspectRatio="xMidYMid meet">

<g transform="translate(0.000000,325.000000) scale(0.100000,-0.100000)" fill="#ffffff" stroke="none">
<path d="M1476 3089 c-25 -103 -156 -825 -156 -854 0 -20 5 -45 11 -57 26 -48 26 -48 849 -48 522 0 770 3 770 10 0 21 -53 137 -102 222 -149 263 -396 491 -663 613 -182 83 -352 124 -557 132 l-147 6 -5 -24z" fill="#ffffff"/>
<path d="M1260 3084 c-35 -8 -68 -18 -72 -22 -14 -14 -387 -1082 -399 -1142 -16 -84 -8 -214 19 -272 30 -69 105 -143 177 -178 138 -66 96 -63 1117 -67 l926 -4 8 58 c10 70 10 295 0 346 l-7 37 -832 0 c-518 0 -857 4 -897 10 -161 26 -225 110 -200 266 6 36 64 270 130 521 66 250 120 457 120 459 0 6 -18 4 -90 -12z" fill="#ffffff"/>
<path d="M914 2961 c-156 -78 -276 -163 -399 -286 -367 -367 -511 -877 -393 -1390 131 -571 553 -977 1151 -1107 86 -19 133 -22 302 -22 169 0 216 3 302 22 403 88 730 319 943 667 43 69 111 209 125 253 l6 22 -893 0 c-969 0 -1006 2 -1166 55 -212 72 -343 212 -372 400 -26 164 -4 233 280 884 132 304 239 555 237 557 -2 2 -57 -23 -123 -55z" fill="#ffffff"/>
<path d="M4419 2560 c-156 -28 -287 -80 -414 -165 -308 -204 -482 -567 -462 -958 22 -436 318 -749 754 -797 397 -43 797 156 997 497 5 9 -52 42 -182 107 l-189 95 -15 -33 c-23 -47 -111 -139 -169 -177 -118 -75 -269 -103 -411 -75 -256 50 -402 267 -370 549 26 232 144 412 327 502 93 46 172 65 270 65 94 0 178 -20 248 -57 62 -34 149 -128 173 -187 11 -25 23 -46 29 -46 11 0 408 112 414 116 8 7 -41 111 -87 184 -101 163 -264 290 -452 352 -88 29 -107 31 -255 34 -88 1 -181 -1 -206 -6z" fill="#ffffff"/>
<path d="M9020 2524 c-80 -25 -161 -49 -181 -54 l-36 -10 -12 -113 c-6 -61 -14 -129 -17 -149 l-6 -38 -129 0 c-83 0 -129 -4 -129 -10 0 -14 -28 -285 -34 -327 l-5 -33 130 0 c71 0 129 -3 129 -7 0 -5 -16 -161 -36 -348 -25 -237 -34 -364 -31 -420 13 -190 96 -290 277 -336 54 -14 372 -21 384 -8 3 3 12 68 21 145 8 76 17 153 20 169 l5 30 -113 0 c-120 1 -160 13 -191 57 -22 32 -20 92 14 413 16 154 30 286 30 293 0 9 41 12 170 12 94 0 170 4 170 9 0 18 30 307 35 334 l5 27 -171 0 -170 0 6 43 c11 78 35 312 35 340 0 15 -5 27 -12 26 -7 -1 -78 -21 -158 -45z" fill="#ffffff"/>
<path d="M12516 2514 c-98 -29 -180 -55 -182 -57 -2 -2 -44 -392 -94 -868 -49 -475 -91 -876 -93 -892 l-4 -27 191 2 191 3 97 925 c53 509 97 935 98 948 0 12 -6 22 -12 21 -7 0 -94 -25 -192 -55z" fill="#ffffff"/>
<path d="M6060 2185 c-307 -63 -552 -307 -637 -634 -33 -129 -35 -308 -4 -424 94 -354 412 -553 769 -482 100 20 227 82 295 145 30 28 57 50 59 50 2 0 1 -26 -3 -57 -4 -32 -8 -70 -8 -85 l-1 -28 190 0 c163 0 190 2 190 15 0 8 34 333 75 722 41 388 75 717 75 730 l0 23 -158 0 -158 0 -34 -77 c-18 -43 -36 -82 -40 -86 -4 -5 -31 17 -60 48 -121 127 -340 183 -550 140z m240 -356 c87 -14 140 -39 198 -93 158 -148 144 -435 -29 -609 -70 -70 -156 -113 -255 -126 -240 -34 -420 105 -432 333 -8 150 38 274 137 372 81 80 165 117 306 133 6 0 39 -4 75 -10z" fill="#ffffff"/>
<path d="M7695 2184 c-115 -20 -246 -87 -324 -165 -101 -100 -148 -225 -139 -368 12 -187 112 -277 423 -379 172 -56 225 -81 254 -118 48 -61 10 -140 -79 -164 -61 -16 -196 -9 -241 13 -47 23 -105 81 -130 129 l-19 37 -182 -61 c-101 -33 -187 -65 -193 -70 -20 -18 64 -158 139 -233 127 -126 249 -170 476 -169 171 0 246 16 365 74 137 67 221 158 265 291 18 53 21 80 18 159 -5 120 -30 180 -102 249 -78 73 -158 110 -371 171 -216 63 -271 115 -215 207 40 66 154 92 233 54 46 -22 91 -77 103 -125 3 -15 9 -28 13 -30 3 -2 87 20 186 48 209 61 200 49 138 176 -45 93 -142 193 -226 233 -114 55 -239 68 -392 41z" fill="#ffffff"/>
<path d="M11186 2184 c-357 -71 -620 -331 -691 -683 -27 -130 -18 -300 22 -412 104 -299 385 -477 718 -456 373 25 672 263 781 622 25 81 28 105 28 240 0 136 -2 157 -27 230 -115 344 -458 534 -831 459z m271 -386 c196 -73 267 -326 156 -554 -101 -207 -372 -301 -572 -199 -267 135 -229 587 62 730 40 19 92 40 117 45 64 13 170 3 237 -22z" fill="#ffffff"/>
<path d="M10455 2184 c-11 -2 -45 -9 -75 -15 -79 -15 -208 -80 -269 -135 -28 -25 -53 -45 -55 -43 -1 2 -11 41 -21 87 l-18 82 -161 0 -162 0 -77 -737 c-43 -406 -78 -741 -77 -745 0 -5 86 -8 190 -8 148 0 190 3 190 13 0 47 82 776 91 810 47 176 214 297 410 297 48 0 69 4 69 13 0 6 9 95 20 197 11 102 20 186 20 188 0 3 -51 0 -75 -4z" fill="#ffffff"/>
</g>
</svg>