<?xml version="1.0" standalone="no"?>
<!DOCTYPE svg PUBLIC "-//W3C//DTD SVG 20010904//EN"
 "http://www.w3.org/TR/2001/REC-SVG-20010904/DTD/svg10.dtd">
<svg version="1.0" xmlns="http://www.w3.org/2000/svg"
 width="343.000000pt" height="143.000000pt" viewBox="0 0 343.000000 143.000000"
 preserveAspectRatio="xMidYMid meet">

<g transform="translate(0.000000,143.000000) scale(0.100000,-0.100000)"
fill="#FFFFFF" stroke="none">
<path d="M1238 1022 c-10 -4 85 -7 210 -7 l227 0 115 -41 c159 -57 162 -58
100 -28 -151 71 -187 78 -420 81 -118 1 -223 -1 -232 -5z"/>
<path d="M1155 1000 c-25 -11 1 -11 35 0 20 6 21 8 5 8 -11 0 -29 -3 -40 -8z"/>
<path d="M1065 980 c-25 -11 1 -11 35 0 20 6 21 8 5 8 -11 0 -29 -3 -40 -8z"/>
<path d="M990 960 c-13 -9 -13 -10 0 -9 8 0 24 4 35 9 l20 9 -20 0 c-11 0 -27
-4 -35 -9z"/>
<path d="M928 945 c-3 -3 -45 -12 -94 -19 -65 -10 -77 -14 -44 -14 46 0 202
35 164 37 -11 0 -23 -1 -26 -4z"/>
<path d="M295 929 c51 -10 92 -10 50 1 -16 4 -43 8 -60 8 -25 0 -24 -2 10 -9z"/>
<path d="M1570 929 c65 -7 144 -27 215 -54 14 -6 17 -5 10 2 -5 6 -45 23 -87
37 -56 19 -95 26 -145 25 l-68 -2 75 -8z"/>
<path d="M403 907 c19 -8 10 -13 -58 -39 -91 -33 -120 -56 -145 -113 -20 -43
-71 -260 -69 -291 1 -19 11 19 43 166 9 41 28 98 41 127 26 57 37 64 176 118
58 22 82 25 210 26 177 2 147 7 -63 11 -92 2 -148 0 -135 -5z"/>
<path d="M1974 902 c3 -5 48 -28 101 -51 100 -44 183 -67 350 -96 204 -36 314
-93 461 -239 105 -105 138 -155 129 -195 -8 -37 -55 -97 -101 -130 -31 -22
-45 -25 -119 -24 -47 0 -82 -4 -79 -8 7 -12 108 -11 158 1 79 18 169 137 153
202 -9 34 -119 161 -192 221 -140 115 -228 152 -455 192 -148 25 -216 47 -353
109 -32 14 -56 23 -53 18z"/>
<path d="M1810 866 c0 -2 7 -7 16 -10 8 -3 12 -2 9 4 -6 10 -25 14 -25 6z"/>
<path d="M1317 804 c-2 -14 -5 -76 -6 -138 -2 -131 -13 -156 -66 -156 l-35 0
7 119 c6 122 1 169 -17 141 -6 -8 -10 -73 -10 -145 0 -71 -5 -191 -10 -265 -5
-74 -7 -145 -4 -157 13 -50 22 -18 26 92 2 63 9 120 15 126 5 5 26 12 46 16
l37 6 0 -134 c0 -106 3 -131 13 -121 8 9 13 58 14 160 1 81 5 219 9 308 5 108
4 163 -3 167 -6 4 -13 -5 -16 -19z"/>
<path d="M946 758 c-3 -18 -8 -108 -11 -201 -7 -195 5 -305 40 -345 29 -34 51
-24 77 35 18 41 22 79 30 281 6 128 7 236 4 239 -16 16 -21 -25 -28 -218 -6
-145 -12 -220 -22 -244 -17 -41 -26 -43 -52 -14 -18 20 -19 38 -17 260 1 141
-1 239 -7 239 -5 0 -11 -15 -14 -32z m65 -508 c10 0 19 5 19 12 0 6 3 8 6 5 8
-8 -23 -57 -36 -57 -11 0 -40 52 -40 72 0 7 7 2 16 -10 8 -12 24 -22 35 -22z"/>
<path d="M830 765 c-14 -8 -32 -14 -41 -15 -14 0 -17 -19 -23 -117 -14 -280
-17 -439 -7 -453 5 -8 12 -12 15 -10 2 3 6 52 7 108 l3 104 35 26 c47 35 51
41 51 80 0 37 -18 42 -45 12 -32 -36 -38 -24 -33 71 5 98 16 119 64 119 24 0
39 37 29 71 -7 22 -21 23 -55 4z m37 -23 c1 -13 -11 -23 -43 -35 -56 -20 -60
-2 -6 30 46 27 47 27 49 5z m-27 -273 c-20 -15 -21 -18 -5 -13 23 8 22 7 -27
-29 l-38 -28 0 27 c0 15 3 24 6 21 4 -3 23 7 42 23 20 16 38 27 41 24 3 -3 -5
-14 -19 -25z"/>
<path d="M1651 754 c-24 -20 -31 -34 -31 -61 0 -28 3 -34 16 -29 12 5 15 1 10
-22 -9 -48 -18 -418 -11 -451 13 -62 25 -29 25 74 l0 104 39 61 c54 83 75 150
76 236 0 57 -4 76 -19 93 -26 28 -68 27 -105 -5z m89 -54 c14 -7 17 -18 13
-47 -6 -46 -45 -134 -74 -171 l-21 -27 7 120 c4 71 12 123 19 127 15 10 34 10
56 -2z"/>
<path d="M1928 764 c-8 -9 -34 -16 -58 -17 -37 -2 -45 -6 -50 -27 -10 -36 -23
-517 -15 -530 5 -8 12 -7 23 3 10 7 33 20 52 27 19 7 43 20 53 28 22 19 24 82
2 82 -8 0 -15 -4 -15 -9 0 -10 -53 -31 -77 -31 -11 0 -13 16 -11 77 l3 77 40
8 c45 10 55 21 55 66 0 36 -4 38 -40 17 -45 -26 -50 -20 -50 54 0 72 6 81 51
81 11 0 31 7 44 16 20 13 25 25 25 55 0 42 -7 48 -32 23z"/>
<path d="M2057 744 c-16 -9 -35 -13 -42 -10 -21 7 -23 -11 -30 -214 -3 -102
-8 -209 -11 -238 -2 -29 -2 -63 2 -76 l6 -24 34 23 c19 13 48 26 64 30 27 6
30 10 30 46 0 43 -9 47 -50 24 -50 -28 -60 -21 -60 44 0 63 8 75 53 86 24 6
27 12 27 46 0 32 -4 39 -19 39 -11 0 -23 -4 -26 -10 -16 -26 -25 -4 -25 59 0
79 8 90 70 98 l41 6 -3 41 c-3 47 -18 54 -61 30z"/>
<path d="M1512 743 c-29 -12 -56 -87 -56 -158 0 -78 15 -116 70 -178 43 -47
47 -100 9 -141 -20 -22 -28 -25 -44 -16 -33 17 -41 12 -41 -30 0 -34 4 -41 24
-46 41 -10 60 -1 83 42 47 85 39 210 -18 266 -65 66 -75 107 -39 166 28 45 64
42 68 -6 5 -47 22 -29 22 24 0 73 -26 98 -78 77z"/>
<path d="M2167 731 c-4 -16 -9 -201 -11 -403 -1 -58 3 -110 7 -115 5 -4 19 5
33 22 l23 29 38 -43 c41 -48 122 -91 168 -90 25 1 24 2 -12 9 -23 5 -55 16
-71 24 -39 20 -102 86 -102 107 0 8 13 40 29 70 38 70 50 119 52 204 2 78 -12
142 -39 174 -22 28 -109 37 -115 12z m114 -98 c17 -32 17 -123 1 -179 -12 -41
-75 -124 -94 -124 -10 0 -3 203 11 322 1 9 32 15 52 10 9 -2 23 -15 30 -29z"/>
<path d="M404 588 c-156 -104 -136 -353 33 -423 53 -23 54 -17 1 10 -169 88
-168 336 1 425 20 10 31 19 25 20 -7 0 -34 -15 -60 -32z"/>
<path d="M2373 610 c-34 -14 -28 -21 7 -9 17 6 30 13 30 15 0 6 -12 4 -37 -6z"/>
<path d="M131 405 c0 -11 4 -27 9 -35 9 -13 10 -13 9 0 0 8 -4 24 -9 35 l-9
20 0 -20z"/>
<path d="M870 265 c0 -56 13 -73 24 -32 11 43 7 87 -9 87 -12 0 -15 -13 -15
-55z"/>
<path d="M1117 313 c-10 -10 -8 -103 2 -103 13 0 21 27 21 71 0 37 -8 48 -23
32z m10 -45 c-3 -8 -6 -5 -6 6 -1 11 2 17 5 13 3 -3 4 -12 1 -19z"/>
</g>
</svg>
