<svg xmlns="http://www.w3.org/2000/svg" version="1.0" width="406.000000pt" height="124.000000pt" viewBox="0 0 406.000000 124.000000" preserveAspectRatio="xMidYMid meet">

<g transform="translate(0.000000,124.000000) scale(0.100000,-0.100000)" fill="#ffffff" stroke="none">
<path d="M0 641 l0 -600 125 -3 125 -3 0 429 c0 236 2 427 5 424 3 -3 58 -195 123 -427 65 -232 121 -422 125 -422 4 1 56 1 116 1 l108 0 118 418 c65 229 122 421 126 426 5 6 9 -179 9 -417 l0 -427 120 0 120 0 0 600 0 600 -187 -2 -188 -3 -107 -350 c-58 -192 -109 -359 -112 -370 -3 -10 -8 -17 -11 -14 -2 3 -41 127 -86 275 -44 148 -94 313 -110 367 l-30 97 -194 0 -195 0 0 -599z" fill="#ffffff"/>
<path d="M2370 638 l0 -603 125 3 125 3 0 36 0 37 28 -26 c56 -52 116 -71 227 -70 398 5 579 525 279 802 -73 67 -162 103 -267 108 -100 5 -156 -7 -222 -49 l-45 -29 0 195 0 195 -125 0 -125 0 0 -602z m548 36 c80 -33 133 -112 133 -198 0 -63 -11 -94 -52 -140 -45 -52 -97 -76 -161 -76 -189 1 -286 212 -164 356 56 67 162 93 244 58z" fill="#ffffff"/>
<path d="M3420 1120 l0 -120 120 0 120 0 0 120 0 120 -120 0 -120 0 0 -120z" fill="#ffffff"/>
<path d="M3810 638 l0 -603 125 3 125 3 0 600 0 599 -125 0 -125 0 0 -602z" fill="#ffffff"/>
<path d="M1673 925 c-232 -63 -383 -291 -345 -519 47 -275 311 -450 577 -381 234 61 384 286 346 519 -44 272 -316 451 -578 381z m214 -260 c157 -79 159 -294 4 -379 -46 -24 -61 -28 -116 -24 -217 14 -279 299 -86 400 69 36 129 37 198 3z" fill="#ffffff"/>
<path d="M3420 473 l0 -438 120 3 120 3 0 435 0 434 -120 0 -120 0 0 -437z" fill="#ffffff"/>
</g>
</svg>