<svg xmlns="http://www.w3.org/2000/svg" version="1.0" width="866.000000pt" height="650.000000pt" viewBox="0 0 866.000000 650.000000" preserveAspectRatio="xMidYMid meet">

<g transform="translate(0.000000,650.000000) scale(0.100000,-0.100000)" fill="#ffffff" stroke="none">
<path d="M620 3255 l0 -1005 3710 0 3710 0 0 1005 0 1005 -3710 0 -3710 0 0 -1005z m3043 685 c155 -15 274 -57 328 -117 49 -53 288 -361 306 -395 15 -28 18 -56 17 -173 0 -133 -2 -145 -32 -225 -78 -206 -241 -362 -457 -437 -74 -25 -92 -27 -240 -28 -189 0 -251 13 -394 83 -77 37 -110 61 -181 131 -73 72 -94 100 -127 171 -50 105 -66 178 -65 296 0 113 16 188 57 279 99 215 293 363 540 410 86 16 124 17 248 5z m-1793 -25 c0 -16 72 -493 76 -505 3 -8 55 103 116 248 l111 262 264 0 263 0 0 -670 0 -670 -236 0 -237 0 7 178 c3 97 9 224 12 282 6 126 18 144 -135 -205 l-110 -250 -152 -3 c-84 -1 -156 1 -161 6 -5 5 -13 38 -18 73 -5 35 -16 109 -25 164 -9 55 -23 151 -32 214 -20 137 -13 150 -103 -201 l-63 -247 -234 -3 c-129 -2 -239 0 -245 3 -5 3 27 128 77 295 48 159 99 332 114 384 16 52 65 220 111 373 l83 277 258 0 c143 0 259 -2 259 -5z m3510 -17 c0 -13 -9 -106 -20 -208 -11 -102 -20 -189 -20 -193 0 -5 -47 -5 -104 -1 -124 8 -106 38 -136 -226 -12 -102 -34 -293 -50 -426 -17 -132 -30 -243 -30 -247 0 -4 -117 -7 -260 -7 l-259 0 4 28 c3 15 28 207 55 427 28 220 53 413 56 429 l6 29 -95 -8 c-92 -7 -96 -6 -116 17 -33 39 -311 400 -311 404 0 2 288 4 640 4 l640 0 0 -22z m610 4 c0 -9 -15 -150 -34 -312 -68 -577 -67 -550 -21 -596 31 -31 105 -33 151 -5 55 34 53 24 151 734 l27 197 248 0 c136 0 248 -3 248 -7 0 -5 -5 -42 -10 -83 -6 -41 -21 -172 -35 -290 -14 -118 -29 -253 -35 -300 -5 -47 -14 -122 -19 -167 -34 -289 -184 -451 -475 -509 -62 -13 -114 -16 -222 -11 -121 4 -152 9 -226 34 -165 57 -296 173 -332 293 -28 94 -28 149 -2 365 14 116 37 309 51 430 15 121 28 226 30 233 3 9 63 12 255 12 232 0 250 -1 250 -18z m1410 -10 c0 -16 -7 -80 -15 -143 -8 -63 -19 -150 -25 -194 -10 -89 -57 -462 -64 -512 l-5 -33 200 0 c109 0 199 -3 199 -7 0 -4 -26 -99 -57 -210 l-57 -203 -431 0 -431 0 22 173 c13 94 52 391 88 659 37 267 66 489 66 492 0 3 115 6 255 6 l255 0 0 -28z" fill="#ffffff"/>
<path d="M3473 3475 c-89 -45 -153 -151 -153 -253 0 -90 70 -192 156 -228 101 -42 237 12 305 122 18 30 24 56 27 123 4 79 2 90 -25 141 -42 79 -94 112 -187 117 -62 4 -78 1 -123 -22z" fill="#ffffff"/>
</g>
</svg>