<svg xmlns="http://www.w3.org/2000/svg" version="1.0" width="820.000000pt" height="341.000000pt" viewBox="0 0 820.000000 341.000000" preserveAspectRatio="xMidYMid meet">

<g transform="translate(0.000000,341.000000) scale(0.100000,-0.100000)" fill="#ffffff" stroke="none">
<path d="M2866 3378 c-71 -23 -128 -61 -191 -126 -48 -49 -101 -144 -110 -198 -4 -27 -1 -32 18 -36 12 -2 234 -3 492 -2 466 1 526 -2 595 -33 19 -9 125 -104 235 -212 110 -108 211 -204 225 -214 116 -83 322 -79 445 10 l48 35 -314 315 c-369 370 -429 415 -613 463 -62 16 -113 19 -421 18 -323 0 -355 -1 -409 -20z" fill="#ffffff"/>
<path d="M2455 2942 c-154 -11 -289 -119 -340 -270 -24 -74 -17 -198 15 -267 l23 -50 8 38 c17 75 50 117 117 149 31 14 62 17 187 15 137 -3 154 -5 195 -27 28 -16 213 -192 499 -477 513 -510 462 -475 520 -359 52 104 56 241 10 341 -24 53 -67 100 -379 413 -286 288 -397 392 -416 392 -4 0 -15 6 -23 13 -24 20 -129 62 -186 75 -54 12 -165 19 -230 14z" fill="#ffffff"/>
<path d="M3079 2927 c-6 -9 -11 -39 -13 -66 -7 -108 70 -191 177 -192 68 -1 95 11 139 59 42 46 62 106 53 155 -12 62 -9 61 -185 62 -146 0 -163 -1 -171 -18z" fill="#ffffff"/>
<path d="M5685 1382 c-16 -1 -37 -6 -45 -9 -20 -8 -27 -10 -46 -12 -8 0 -12 -5 -9 -11 3 -5 0 -7 -9 -4 -8 3 -36 -5 -63 -17 -26 -13 -52 -23 -58 -24 -5 0 -9 -6 -7 -13 1 -7 -1 -11 -5 -11 -22 4 -41 -3 -59 -18 -11 -10 -29 -23 -40 -30 -10 -6 -18 -16 -16 -22 1 -6 -4 -10 -10 -8 -7 1 -12 -4 -10 -11 1 -6 -4 -11 -10 -10 -7 2 -12 -3 -10 -10 1 -6 -4 -11 -10 -10 -7 2 -12 -3 -10 -10 1 -6 -3 -11 -9 -10 -6 2 -16 -6 -22 -16 -7 -11 -20 -29 -29 -40 -10 -12 -17 -25 -17 -30 0 -5 -4 -12 -9 -15 -6 -3 -12 -13 -14 -21 -2 -8 -8 -20 -15 -27 -6 -7 -10 -22 -8 -33 2 -11 -1 -19 -8 -17 -6 1 -12 -2 -12 -8 -1 -5 -5 -17 -8 -25 -4 -8 -8 -26 -9 -40 -2 -14 -7 -31 -12 -38 -11 -18 -12 -234 -1 -252 5 -8 10 -30 12 -49 2 -19 8 -38 14 -41 6 -4 10 -11 9 -16 0 -5 1 -16 3 -24 2 -8 4 -18 5 -23 4 -20 34 -67 40 -63 4 3 9 -4 9 -15 2 -27 22 -51 36 -42 6 3 7 1 3 -5 -3 -6 5 -22 18 -35 14 -14 22 -28 19 -31 -4 -3 1 -6 11 -6 9 0 14 -5 11 -10 -3 -6 -1 -10 5 -10 6 0 22 -11 36 -25 14 -14 30 -22 36 -19 6 4 8 3 5 -3 -9 -14 15 -34 42 -36 11 0 18 -5 15 -9 -3 -4 9 -14 26 -23 16 -8 30 -12 30 -8 0 5 4 2 9 -5 4 -7 14 -15 22 -16 8 -2 22 -6 31 -10 9 -4 22 -9 30 -10 7 -2 21 -6 30 -10 9 -4 37 -8 61 -9 25 -1 43 -5 40 -9 -2 -5 35 -8 82 -8 66 0 84 3 79 13 -6 9 -4 9 8 -1 10 -8 18 -9 22 -3 4 6 12 8 20 5 7 -3 26 1 42 7 16 7 40 14 54 16 42 7 175 78 172 92 -1 7 2 10 7 7 5 -4 17 1 25 10 9 8 16 12 16 8 0 -4 9 1 20 11 11 10 17 22 13 28 -3 5 -1 7 4 4 13 -8 46 27 36 38 -5 4 -3 5 3 2 6 -4 19 2 29 13 10 11 14 20 10 20 -5 0 -1 6 10 13 10 8 15 19 11 26 -5 7 -2 10 6 9 7 -2 12 3 11 10 -2 6 1 12 6 12 14 0 63 109 57 126 -3 8 -2 12 4 9 6 -3 11 1 11 9 2 20 4 26 15 51 11 26 11 274 0 300 -5 11 -10 31 -11 43 -1 13 -8 27 -14 32 -7 4 -12 9 -10 11 1 2 -1 15 -5 29 -5 14 -10 31 -11 39 -2 8 -9 17 -15 21 -7 4 -12 11 -13 16 -1 5 -6 8 -10 6 -5 -1 -6 2 -3 7 4 5 -2 17 -11 27 -10 10 -18 20 -18 23 0 3 -4 5 -8 3 -5 -1 -6 2 -2 7 7 13 -83 103 -96 96 -5 -4 -8 -1 -7 7 2 7 -3 12 -10 10 -8 -1 -11 2 -8 7 8 12 -17 32 -43 34 -11 0 -19 4 -18 8 1 4 0 6 -3 5 -3 0 -16 9 -30 22 -21 20 -40 27 -62 23 -5 0 -8 4 -8 9 0 6 -8 10 -18 10 -10 0 -22 4 -27 9 -6 5 -23 11 -40 12 -16 2 -35 7 -42 12 -12 8 -193 15 -248 9z m220 -303 c-7 -10 25 -20 37 -12 7 3 8 1 4 -5 -6 -11 12 -17 37 -13 4 0 6 -5 5 -12 -2 -6 3 -11 10 -10 6 2 11 -3 10 -10 -2 -6 3 -11 10 -10 6 2 11 -3 10 -10 -2 -6 3 -11 10 -10 6 2 11 -3 10 -10 -2 -6 3 -11 10 -9 8 1 11 -2 8 -7 -4 -5 -1 -15 6 -23 7 -7 14 -20 16 -28 2 -8 8 -18 14 -21 5 -3 9 -8 7 -10 -1 -2 1 -15 5 -29 5 -14 10 -38 13 -55 3 -16 8 -34 12 -40 9 -12 7 -103 -2 -125 -4 -8 -8 -26 -11 -40 -2 -14 -7 -36 -12 -50 -4 -14 -7 -26 -6 -28 2 -1 -7 -12 -18 -24 -18 -20 -25 -39 -21 -61 0 -4 -5 -6 -11 -5 -7 2 -12 -3 -10 -10 1 -6 -4 -11 -10 -10 -7 2 -12 -3 -10 -10 1 -6 -4 -11 -10 -10 -7 2 -12 -3 -10 -10 1 -8 -1 -11 -6 -8 -5 3 -30 -6 -57 -19 -27 -14 -56 -25 -65 -25 -9 0 -20 -3 -24 -7 -9 -10 -155 -10 -149 0 2 4 -3 8 -11 8 -32 3 -82 24 -91 39 -3 5 -9 9 -13 7 -4 -2 -26 15 -49 39 -22 24 -39 44 -36 44 4 0 -1 8 -10 18 -8 9 -16 22 -17 27 -1 6 -5 9 -10 8 -4 -1 -7 6 -7 15 0 39 -3 53 -11 48 -11 -7 -12 236 -1 250 5 6 10 19 12 30 2 10 9 30 14 44 6 14 9 28 6 33 -2 4 -1 6 4 5 4 -2 9 0 10 5 2 4 14 19 27 34 14 15 22 31 19 36 -3 6 -2 7 4 4 5 -3 22 6 38 21 16 15 32 27 35 27 3 0 4 3 3 6 -1 4 6 6 15 6 39 0 53 4 48 12 -3 5 45 8 109 8 63 0 112 -4 110 -8z" fill="#ffffff"/>
<path d="M7 733 c1 -357 2 -654 2 -660 1 -10 485 -13 2386 -13 l2385 0 0 660 0 660 -2387 0 -2388 0 2 -647z m836 443 c171 -45 305 -185 347 -365 16 -67 7 -208 -15 -250 -8 -17 -13 -31 -10 -31 2 0 -10 -24 -27 -52 -57 -92 -151 -171 -248 -206 -53 -19 -197 -26 -261 -13 -203 42 -362 231 -368 437 -4 135 40 246 138 347 116 121 290 173 444 133z m967 -30 c103 -38 140 -67 175 -135 40 -79 42 -191 5 -266 -26 -51 -88 -104 -123 -105 -10 0 -17 -3 -15 -7 4 -10 94 -148 119 -185 10 -15 19 -30 19 -34 0 -4 15 -28 34 -54 67 -94 72 -90 -122 -90 -149 0 -171 2 -184 18 -8 9 -41 71 -74 136 l-59 120 -3 -137 -3 -137 -142 0 -142 0 1 443 c1 243 2 445 3 449 0 3 106 5 234 3 184 -2 241 -6 277 -19z m668 -303 l2 -323 140 0 140 0 0 -125 0 -125 -300 0 -300 0 0 448 0 449 158 -1 157 -1 3 -322z m1000 210 l3 -113 -171 0 -170 0 0 -52 0 -53 90 2 91 2 -3 -107 -3 -107 -85 0 -85 -1 -3 -52 -3 -52 191 0 191 0 -3 -122 -3 -123 -330 -3 -330 -2 2 447 c0 247 1 449 2 449 1 1 139 1 309 0 l307 -1 3 -112z m412 105 c0 -5 24 -44 53 -86 28 -42 54 -81 57 -87 5 -9 169 -257 174 -262 1 -1 2 98 1 220 l0 222 140 0 140 0 0 -447 1 -448 -136 0 -135 0 -139 213 c-77 116 -143 216 -146 220 -4 4 -6 -91 -5 -213 l2 -220 -144 0 -143 0 0 443 c0 244 2 446 5 449 9 8 275 5 275 -4z" fill="#ffffff"/>
<path d="M658 876 c-53 -19 -97 -69 -105 -120 -3 -22 -6 -41 -6 -41 0 0 3 -19 7 -43 13 -82 119 -152 207 -137 93 17 160 99 154 190 -8 125 -130 196 -257 151z" fill="#ffffff"/>
<path d="M1580 844 l0 -97 43 6 c73 8 95 22 103 62 15 81 -21 125 -103 125 l-43 0 0 -96z" fill="#ffffff"/>
<path d="M6730 702 l0 -657 178 0 177 0 0 658 1 657 -178 0 -178 0 0 -658z" fill="#ffffff"/>
<path d="M7390 702 l0 -657 398 0 397 0 0 149 0 148 -222 0 -223 0 0 509 0 509 -175 0 -175 0 0 -658z" fill="#ffffff"/>
</g>
</svg>