<svg xmlns="http://www.w3.org/2000/svg" version="1.0" width="272.000000pt" height="185.000000pt" viewBox="0 0 272.000000 185.000000" preserveAspectRatio="xMidYMid meet">

<g transform="translate(0.000000,185.000000) scale(0.100000,-0.100000)" fill="#ffffff" stroke="none">
<path d="M12 1838 c2 -5 199 -296 438 -648 l435 -640 429 3 429 2 315 460 c173 253 370 542 439 643 l124 182 -438 0 -438 -1 -209 -315 c-116 -173 -214 -317 -218 -320 -4 -3 -103 139 -220 316 l-213 321 -438 2 c-240 1 -436 -1 -435 -5z" fill="#ffffff"/>
<path d="M1868 603 c6 -2 12 -16 12 -29 0 -13 5 -24 10 -24 6 0 10 11 10 25 0 14 5 25 10 25 6 0 10 -11 10 -25 0 -29 16 -34 23 -7 4 16 5 16 6 0 0 -10 5 -18 10 -18 5 0 12 8 14 18 4 16 5 16 6 0 2 -31 21 -19 21 12 0 31 -23 42 -34 18 -5 -10 -7 -10 -12 0 -3 7 -24 12 -52 11 -26 0 -41 -3 -34 -6z" fill="#ffffff"/>
<path d="M790 205 l0 -205 50 0 50 0 0 205 0 205 -50 0 -50 0 0 -205z" fill="#ffffff"/>
<path d="M1610 205 l0 -205 55 0 55 0 0 205 0 205 -55 0 -55 0 0 -205z" fill="#ffffff"/>
<path d="M1760 380 c0 -30 1 -30 55 -30 54 0 55 0 55 30 0 30 -1 30 -55 30 -54 0 -55 0 -55 -30z" fill="#ffffff"/>
<path d="M50 391 c0 -5 9 -28 19 -52 10 -24 47 -110 81 -192 l62 -147 57 0 57 0 78 188 c43 103 81 193 83 200 4 9 -11 12 -54 12 l-60 0 -48 -125 c-26 -69 -50 -125 -54 -125 -3 0 -28 56 -54 125 l-48 125 -60 0 c-32 0 -59 -4 -59 -9z" fill="#ffffff"/>
<path d="M481 290 l-10 -30 85 0 c83 0 84 0 84 -25 0 -25 -1 -25 -78 -25 -110 0 -122 -10 -122 -104 0 -101 1 -101 169 -101 l136 0 3 110 c2 61 -2 126 -8 147 -13 47 -45 58 -161 58 l-87 0 -11 -30z m157 -177 l3 -43 -50 0 -51 0 0 46 0 45 48 -3 47 -3 3 -42z" fill="#ffffff"/>
<path d="M964 163 l53 -158 68 0 68 0 53 158 52 157 -53 0 -54 0 -15 -52 c-8 -29 -21 -74 -28 -100 -6 -27 -15 -48 -18 -48 -3 0 -18 45 -34 100 l-29 100 -58 0 -57 0 52 -157z" fill="#ffffff"/>
<path d="M1301 308 c-34 -18 -44 -64 -39 -176 5 -119 10 -124 122 -130 47 -2 101 -1 120 2 61 12 66 24 66 155 0 158 2 155 -137 159 -73 2 -116 -1 -132 -10z m159 -143 l0 -95 -45 0 -45 0 0 89 0 90 43 4 c23 2 43 4 45 5 1 1 2 -41 2 -93z" fill="#ffffff"/>
<path d="M1760 160 l0 -160 55 0 55 0 0 160 0 160 -55 0 -55 0 0 -160z" fill="#ffffff"/>
<path d="M1910 161 l0 -161 50 0 50 0 0 125 0 125 45 0 45 0 0 -125 0 -125 55 0 55 0 0 134 c0 184 4 180 -169 184 l-131 4 0 -161z" fill="#ffffff"/>
<path d="M2300 313 c-46 -18 -50 -31 -50 -153 0 -154 0 -154 155 -158 111 -4 112 -4 118 19 4 13 7 27 7 32 0 4 -38 7 -85 7 -83 0 -85 1 -85 24 0 22 4 24 81 28 99 6 109 15 109 103 0 94 -8 100 -132 102 -57 1 -110 0 -118 -4z m150 -104 l0 -39 -45 0 -45 0 0 43 0 42 45 -3 45 -4 0 -39z" fill="#ffffff"/>
<path d="M2588 53 c6 -2 12 -16 12 -29 0 -13 5 -24 10 -24 6 0 10 11 10 24 0 13 6 27 13 29 6 3 -4 5 -23 5 -19 0 -29 -2 -22 -5z" fill="#ffffff"/>
<path d="M2651 28 c1 -31 2 -31 8 -8 l7 25 8 -25 c4 -14 10 -20 12 -13 6 14 -13 53 -26 53 -6 0 -10 -15 -9 -32z" fill="#ffffff"/>
<path d="M2690 44 c0 -9 5 -12 12 -8 8 5 9 2 5 -9 -3 -9 -2 -19 3 -22 6 -4 10 7 10 24 0 21 -5 31 -15 31 -8 0 -15 -7 -15 -16z" fill="#ffffff"/>
</g>
</svg>