<svg xmlns="http://www.w3.org/2000/svg" version="1.0" width="300.000000pt" height="75.000000pt" viewBox="0 0 300.000000 75.000000" preserveAspectRatio="xMidYMid meet">

<g transform="translate(0.000000,75.000000) scale(0.100000,-0.100000)" fill="#ffffff" stroke="none">
<path d="M150 745 c0 -3 23 -50 50 -105 28 -55 50 -102 50 -104 0 -3 -50 -46 -111 -95 l-111 -91 80 0 80 0 54 45 c57 48 55 48 90 -14 l17 -31 101 0 c55 0 100 2 100 5 0 3 -23 50 -50 105 -27 55 -50 101 -50 103 0 2 49 44 110 93 l110 89 -76 3 -76 3 -56 -46 c-61 -51 -58 -51 -94 14 l-17 31 -101 0 c-55 0 -100 -2 -100 -5z" fill="#ffffff"/>
<path d="M721 723 c-39 -37 -136 -324 -120 -355 9 -17 22 -18 182 -16 170 3 172 3 175 26 3 21 1 22 -82 22 -96 0 -95 -1 -70 73 l16 47 78 0 c62 0 79 3 84 16 12 31 5 34 -69 34 -41 0 -75 2 -75 4 0 1 5 18 11 37 21 63 33 69 126 69 80 0 84 1 93 26 6 14 10 30 10 35 0 5 -69 9 -165 9 l-165 0 -29 -27z" fill="#ffffff"/>
<path d="M1078 550 l-66 -200 93 0 93 0 54 163 55 162 33 3 c18 2 36 0 41 -5 5 -5 -12 -71 -38 -150 -58 -173 -57 -175 55 -171 l76 3 60 183 c59 179 60 184 42 198 -16 11 -63 14 -226 14 l-205 0 -67 -200z" fill="#ffffff"/>
<path d="M1667 743 c-2 -5 -30 -86 -61 -180 -36 -106 -55 -180 -51 -193 6 -19 14 -20 223 -20 l217 0 67 200 66 200 -93 0 -93 0 -59 -172 -58 -173 -37 -3 c-31 -3 -38 0 -38 15 0 10 23 86 50 168 28 82 50 153 50 157 0 10 -177 11 -183 1z" fill="#ffffff"/>
<path d="M2129 563 c-34 -104 -64 -194 -67 -200 -3 -10 18 -13 84 -13 l89 0 55 163 c52 154 56 162 83 165 16 2 29 -2 32 -11 3 -7 -17 -78 -45 -157 -27 -79 -50 -147 -50 -152 0 -4 40 -8 88 -8 l88 0 54 165 c53 160 55 165 82 165 15 0 29 -4 32 -8 3 -5 -16 -72 -41 -150 -60 -181 -65 -174 111 -170 115 3 131 5 134 21 3 14 -4 17 -46 17 -27 0 -51 3 -54 6 -3 3 17 75 45 160 41 121 49 158 41 172 -10 15 -40 17 -332 20 l-320 2 -63 -187z" fill="#ffffff"/>
<path d="M2932 408 c-17 -17 -15 -33 5 -49 15 -13 15 -12 3 8 -11 18 -12 24 -1 37 16 19 10 21 -7 4z" fill="#ffffff"/>
<path d="M2972 409 c2 -8 -3 -13 -9 -11 -14 2 -17 -10 -6 -21 3 -4 12 1 19 11 11 14 13 15 14 2 0 -9 -6 -22 -12 -30 -11 -12 -10 -12 5 -1 21 17 22 35 1 51 -12 11 -15 11 -12 -1z" fill="#ffffff"/>
<path d="M390 91 c0 -5 10 -11 23 -13 18 -2 23 -10 25 -41 4 -49 26 -44 30 6 3 29 7 37 23 37 10 0 19 5 19 10 0 6 -27 10 -60 10 -33 0 -60 -4 -60 -9z" fill="#ffffff"/>
<path d="M540 50 l0 -50 50 0 c28 0 50 5 50 10 0 6 -16 10 -35 10 -19 0 -35 5 -35 10 0 6 16 10 35 10 19 0 35 5 35 10 0 6 -16 10 -35 10 -19 0 -35 5 -35 10 0 6 16 10 35 10 19 0 35 5 35 10 0 6 -22 10 -50 10 l-50 0 0 -50z" fill="#ffffff"/>
<path d="M676 84 c-10 -25 -7 -59 6 -72 23 -23 108 -12 108 14 0 10 -11 12 -45 7 -41 -5 -45 -4 -45 16 0 28 25 37 56 21 27 -15 39 -9 31 15 -9 22 -102 21 -111 -1z" fill="#ffffff"/>
<path d="M820 50 c0 -50 17 -69 27 -30 4 14 14 20 34 20 22 0 29 -5 29 -20 0 -11 7 -20 15 -20 11 0 15 12 15 50 0 38 -4 50 -15 50 -8 0 -15 -9 -15 -20 0 -15 -7 -20 -29 -20 -20 0 -30 6 -34 20 -10 39 -27 20 -27 -30z" fill="#ffffff"/>
<path d="M970 49 c0 -58 23 -66 28 -9 l3 33 25 -37 c17 -25 32 -36 49 -36 23 0 25 4 25 50 0 37 -4 50 -14 50 -10 0 -16 -13 -18 -37 l-3 -37 -25 37 c-16 24 -33 37 -47 37 -21 0 -23 -5 -23 -51z" fill="#ffffff"/>
<path d="M1134 86 c-3 -8 -4 -29 -2 -48 3 -32 4 -33 56 -36 48 -3 53 -1 62 22 6 17 6 35 0 51 -8 22 -15 25 -60 25 -34 0 -52 -5 -56 -14z m94 -33 c3 -20 -1 -23 -32 -23 -28 0 -36 4 -36 18 0 26 10 33 40 30 17 -2 26 -10 28 -25z" fill="#ffffff"/>
<path d="M1367 93 c-14 -14 -7 -81 9 -87 26 -10 79 -7 92 6 22 22 13 28 -33 21 -41 -5 -45 -4 -45 16 0 28 25 37 56 21 27 -15 39 -9 31 15 -5 11 -20 15 -55 15 -27 0 -52 -3 -55 -7z" fill="#ffffff"/>
<path d="M1510 50 c0 -38 4 -50 15 -50 8 0 15 9 15 20 0 16 7 20 30 20 23 0 30 -4 30 -20 0 -11 7 -20 15 -20 11 0 15 12 15 50 0 38 -4 50 -15 50 -8 0 -15 -9 -15 -20 0 -16 -7 -20 -30 -20 -23 0 -30 4 -30 20 0 11 -7 20 -15 20 -11 0 -15 -12 -15 -50z" fill="#ffffff"/>
<path d="M1660 50 l0 -50 49 0 c28 0 53 5 56 10 4 6 -10 10 -34 10 -23 0 -41 5 -41 10 0 6 16 10 35 10 19 0 35 5 35 10 0 6 -16 10 -35 10 -19 0 -35 5 -35 10 0 6 18 10 41 10 24 0 38 4 34 10 -3 6 -28 10 -56 10 l-49 0 0 -50z" fill="#ffffff"/>
<path d="M1799 95 c0 -3 -1 -24 -1 -47 -1 -53 20 -63 24 -11 l3 38 20 -38 c10 -20 24 -37 30 -37 6 0 20 17 30 38 l20 37 3 -37 c5 -56 22 -46 22 12 0 46 -2 50 -23 50 -16 0 -28 -10 -38 -32 l-15 -31 -13 31 c-10 23 -20 32 -37 32 -13 0 -24 -2 -25 -5z" fill="#ffffff"/>
<path d="M1990 50 c0 -27 5 -50 10 -50 6 0 10 23 10 50 0 28 -4 50 -10 50 -5 0 -10 -22 -10 -50z" fill="#ffffff"/>
<path d="M2057 94 c-4 -4 -7 -24 -7 -45 0 -32 4 -40 24 -45 38 -9 81 -1 84 18 3 14 -3 15 -38 11 -40 -6 -42 -5 -38 18 3 25 24 30 62 14 14 -6 17 -4 14 11 -2 15 -13 20 -48 22 -25 2 -49 0 -53 -4z" fill="#ffffff"/>
<path d="M2208 55 c-23 -48 -19 -66 12 -47 24 15 66 16 75 2 3 -6 13 -10 21 -10 11 0 9 11 -11 50 -20 40 -30 50 -50 50 -20 0 -30 -10 -47 -45z m62 -1 c0 -8 -7 -14 -15 -14 -17 0 -18 2 -9 24 7 18 24 12 24 -10z" fill="#ffffff"/>
<path d="M2350 49 l0 -50 48 3 c53 3 64 21 15 26 -30 3 -33 6 -33 38 0 24 -5 34 -15 34 -11 0 -15 -12 -15 -51z" fill="#ffffff"/>
<path d="M2474 86 c-11 -29 4 -46 41 -46 19 0 35 -5 35 -11 0 -8 -13 -9 -41 -5 -31 5 -40 3 -37 -6 3 -8 23 -13 54 -13 46 0 49 2 49 25 0 22 -5 25 -37 28 -21 2 -38 8 -38 14 0 7 14 8 41 4 31 -5 40 -3 37 6 -7 20 -97 23 -104 4z" fill="#ffffff"/>
</g>
</svg>